{
    "asset" : {
        "generator" : "Khronos glTF Blender I/O v0.9.36",
        "version" : "2.0"
    },
    "scene" : 0,
    "scenes" : [
        {
            "name" : "Scene",
            "nodes" : [
                0,
                1,
                16,
                23
            ]
        }
    ],
    "nodes" : [
        {
            "name" : "Light",
            "rotation" : [
                0.16907575726509094,
                0.7558803558349609,
                -0.27217137813568115,
                0.570947527885437
            ],
            "translation" : [
                4.076245307922363,
                5.903861999511719,
                -1.0054539442062378
            ]
        },
        {
            "name" : "Camera",
            "rotation" : [
                0.483536034822464,
                0.33687159419059753,
                -0.20870360732078552,
                0.7804827094078064
            ],
            "translation" : [
                7.358891487121582,
                4.958309173583984,
                6.925790786743164
            ]
        },
        {
            "name" : "Bone.002",
            "rotation" : [
                -3.5527141023169746e-15,
                1.1920928955078125e-07,
                -2.117582368135751e-22,
                1
            ],
            "translation" : [
                0,
                0.37830281257629395,
                0
            ]
        },
        {
            "name" : "LegDown.R",
            "rotation" : [
                -0.008159535005688667,
                0.01681971177458763,
                0.19073666632175446,
                0.9814632534980774
            ],
            "scale" : [
                1,
                1,
                1.0000001192092896
            ],
            "translation" : [
                -1.3969838619232178e-09,
                0.48535919189453125,
                -2.8638169169425964e-08
            ]
        },
        {
            "children" : [
                3
            ],
            "name" : "LegUp.R",
            "rotation" : [
                -0.675216794013977,
                -0.0743793398141861,
                -0.05655447393655777,
                0.7316772937774658
            ],
            "scale" : [
                0.9999999403953552,
                1,
                1
            ],
            "translation" : [
                7.048792799446701e-11,
                0.2825697958469391,
                1.6117240875246353e-10
            ]
        },
        {
            "children" : [
                4
            ],
            "name" : "ThighBone.R",
            "rotation" : [
                0.49578967690467834,
                0.5041964650154114,
                -0.49733802676200867,
                0.5026266574859619
            ],
            "scale" : [
                1.0000001192092896,
                1.0000001192092896,
                1
            ],
            "translation" : [
                0,
                0.20000001788139343,
                0
            ]
        },
        {
            "name" : "LegDown.L",
            "rotation" : [
                -0.008159535005688667,
                -0.01681971177458763,
                -0.19073666632175446,
                0.9814632534980774
            ],
            "scale" : [
                1,
                1,
                1.0000001192092896
            ],
            "translation" : [
                1.3969838619232178e-09,
                0.48535919189453125,
                -2.8638169169425964e-08
            ]
        },
        {
            "children" : [
                6
            ],
            "name" : "LegUp.L",
            "rotation" : [
                -0.675216794013977,
                0.0743793398141861,
                0.05655447393655777,
                0.7316772937774658
            ],
            "scale" : [
                0.9999999403953552,
                1,
                1
            ],
            "translation" : [
                -7.048792799446701e-11,
                0.2825697958469391,
                1.6117240875246353e-10
            ]
        },
        {
            "children" : [
                7
            ],
            "name" : "ThighBone.L",
            "rotation" : [
                0.49578967690467834,
                -0.5041964650154114,
                0.49733802676200867,
                0.5026266574859619
            ],
            "scale" : [
                1.0000001192092896,
                1.0000001192092896,
                1
            ],
            "translation" : [
                0,
                0.20000001788139343,
                0
            ]
        },
        {
            "children" : [
                5,
                8
            ],
            "name" : "Bone.001",
            "rotation" : [
                7.549789415861596e-08,
                3.552713678800501e-15,
                1,
                4.235165241142481e-22
            ],
            "translation" : [
                0,
                -7.450580596923828e-08,
                0
            ]
        },
        {
            "children" : [
                2,
                9
            ],
            "name" : "Bone",
            "rotation" : [
                0,
                1,
                2.9802318834981634e-08,
                7.549789415861596e-08
            ],
            "scale" : [
                1,
                0.9999997019767761,
                0.9999999403953552
            ],
            "translation" : [
                0,
                0.20000000298023224,
                0
            ]
        },
        {
            "name" : "LegCtrl.R",
            "rotation" : [
                -0.7071068286895752,
                0,
                0,
                0.7071068286895752
            ],
            "translation" : [
                0.3367195725440979,
                -0.7248908877372742,
                -1.3813376426696777e-05
            ]
        },
        {
            "name" : "KneeCtrl.R",
            "rotation" : [
                0,
                0.7071068286895752,
                0.7071068286895752,
                0
            ],
            "translation" : [
                0.31543564796447754,
                -0.47985970973968506,
                0.5899035930633545
            ]
        },
        {
            "name" : "LegCtrl.L",
            "rotation" : [
                -0.7071068286895752,
                0,
                0,
                0.7071068286895752
            ],
            "translation" : [
                -0.3367195725440979,
                -0.9248908758163452,
                -1.3813376426696777e-05
            ]
        },
        {
            "name" : "KneeCtrl.L",
            "rotation" : [
                0,
                0.7071068286895752,
                0.7071068286895752,
                0
            ],
            "translation" : [
                -0.31543564796447754,
                -0.47985970973968506,
                0.5899035930633545
            ]
        },
        {
            "mesh" : 0,
            "name" : "Cube-Model",
            "rotation" : [
                0,
                -0.7071068286895752,
                0,
                0.7071067690849304
            ],
            "skin" : 0,
            "translation" : [
                0,
                -0.9263409972190857,
                0
            ]
        },
        {
            "children" : [
                15,
                10,
                11,
                12,
                13,
                14
            ],
            "name" : "Cube-Armature-Col",
            "translation" : [
                0,
                0.9281710982322693,
                0
            ]
        },
        {
            "name" : "Bone.003",
            "rotation" : [
                0.009203162044286728,
                -1.1920421627564792e-07,
                1.0971024089201364e-09,
                0.9999576807022095
            ],
            "translation" : [
                0,
                0.8733779191970825,
                0
            ]
        },
        {
            "children" : [
                17
            ],
            "name" : "Bone.002",
            "rotation" : [
                -2.980232594040899e-08,
                1.1920927533992653e-07,
                -1.88079096131566e-37,
                1
            ],
            "scale" : [
                1,
                0.9999999403953552,
                0.9999999403953552
            ],
            "translation" : [
                0,
                1.9000000953674316,
                7.450580596923828e-09
            ]
        },
        {
            "name" : "Bone.007",
            "rotation" : [
                4.212824933347292e-08,
                0.9944754838943481,
                -0.10496919602155685,
                -5.492836976372928e-07
            ],
            "scale" : [
                1,
                1,
                0.9999998211860657
            ],
            "translation" : [
                0,
                0.9055385589599609,
                1.4901161193847656e-08
            ]
        },
        {
            "children" : [
                19
            ],
            "name" : "Bone.006",
            "rotation" : [
                7.538236701520873e-08,
                0.05530036985874176,
                0.9984697699546814,
                4.175062517930428e-09
            ],
            "translation" : [
                0,
                1.9000000953674316,
                7.450580596923828e-09
            ]
        },
        {
            "name" : "Bone.008",
            "rotation" : [
                -0.7071068286895752,
                0,
                0,
                0.7071068286895752
            ],
            "translation" : [
                0.30000001192092896,
                0.30000007152557373,
                7.450580596923828e-09
            ]
        },
        {
            "name" : "Bone.009",
            "rotation" : [
                0,
                0.7071068286895752,
                0.7071068286895752,
                0
            ],
            "translation" : [
                0,
                1,
                1.2000000476837158
            ]
        },
        {
            "children" : [
                18,
                20,
                21,
                22
            ],
            "name" : "Armature.001",
            "translation" : [
                0,
                0,
                2
            ]
        }
    ],
    "animations" : [
        {
            "channels" : [
                {
                    "sampler" : 0,
                    "target" : {
                        "node" : 9,
                        "path" : "translation"
                    }
                },
                {
                    "sampler" : 1,
                    "target" : {
                        "node" : 9,
                        "path" : "rotation"
                    }
                },
                {
                    "sampler" : 2,
                    "target" : {
                        "node" : 9,
                        "path" : "scale"
                    }
                },
                {
                    "sampler" : 3,
                    "target" : {
                        "node" : 11,
                        "path" : "translation"
                    }
                },
                {
                    "sampler" : 4,
                    "target" : {
                        "node" : 11,
                        "path" : "rotation"
                    }
                },
                {
                    "sampler" : 5,
                    "target" : {
                        "node" : 11,
                        "path" : "scale"
                    }
                },
                {
                    "sampler" : 6,
                    "target" : {
                        "node" : 13,
                        "path" : "translation"
                    }
                },
                {
                    "sampler" : 7,
                    "target" : {
                        "node" : 13,
                        "path" : "rotation"
                    }
                },
                {
                    "sampler" : 8,
                    "target" : {
                        "node" : 13,
                        "path" : "scale"
                    }
                },
                {
                    "sampler" : 9,
                    "target" : {
                        "node" : 10,
                        "path" : "translation"
                    }
                },
                {
                    "sampler" : 10,
                    "target" : {
                        "node" : 10,
                        "path" : "rotation"
                    }
                },
                {
                    "sampler" : 11,
                    "target" : {
                        "node" : 10,
                        "path" : "scale"
                    }
                }
            ],
            "name" : "Cube-ArmatureAction",
            "samplers" : [
                {
                    "input" : 9,
                    "interpolation" : "STEP",
                    "output" : 10
                },
                {
                    "input" : 9,
                    "interpolation" : "STEP",
                    "output" : 11
                },
                {
                    "input" : 9,
                    "interpolation" : "STEP",
                    "output" : 12
                },
                {
                    "input" : 13,
                    "interpolation" : "CUBICSPLINE",
                    "output" : 14
                },
                {
                    "input" : 13,
                    "interpolation" : "CUBICSPLINE",
                    "output" : 15
                },
                {
                    "input" : 13,
                    "interpolation" : "CUBICSPLINE",
                    "output" : 16
                },
                {
                    "input" : 13,
                    "interpolation" : "CUBICSPLINE",
                    "output" : 17
                },
                {
                    "input" : 13,
                    "interpolation" : "CUBICSPLINE",
                    "output" : 18
                },
                {
                    "input" : 13,
                    "interpolation" : "CUBICSPLINE",
                    "output" : 19
                },
                {
                    "input" : 20,
                    "interpolation" : "CUBICSPLINE",
                    "output" : 21
                },
                {
                    "input" : 20,
                    "interpolation" : "CUBICSPLINE",
                    "output" : 22
                },
                {
                    "input" : 20,
                    "interpolation" : "CUBICSPLINE",
                    "output" : 23
                }
            ]
        }
    ],
    "materials" : [
        {
            "doubleSided" : true,
            "name" : "Material",
            "pbrMetallicRoughness" : {
                "baseColorFactor" : [
                    0.800000011920929,
                    0.800000011920929,
                    0.800000011920929,
                    1
                ],
                "metallicFactor" : 0,
                "roughnessFactor" : 0.4000000059604645
            }
        }
    ],
    "meshes" : [
        {
            "name" : "Cube",
            "primitives" : [
                {
                    "attributes" : {
                        "POSITION" : 0,
                        "NORMAL" : 1,
                        "TEXCOORD_0" : 2,
                        "JOINTS_0" : 3,
                        "WEIGHTS_0" : 4,
                        "JOINTS_1" : 5,
                        "WEIGHTS_1" : 6
                    },
                    "indices" : 7,
                    "material" : 0
                }
            ]
        }
    ],
    "skins" : [
        {
            "inverseBindMatrices" : 8,
            "joints" : [
                10,
                2,
                9,
                5,
                4,
                3,
                8,
                7,
                6,
                11,
                12,
                13,
                14
            ],
            "name" : "Cube-Armature-Col"
        }
    ],
    "accessors" : [
        {
            "bufferView" : 0,
            "componentType" : 5126,
            "count" : 1693,
            "max" : [
                0.5,
                1.7492449283599854,
                0.5
            ],
            "min" : [
                -0.5,
                -0.0007549524307250977,
                -0.5
            ],
            "type" : "VEC3"
        },
        {
            "bufferView" : 1,
            "componentType" : 5126,
            "count" : 1693,
            "type" : "VEC3"
        },
        {
            "bufferView" : 2,
            "componentType" : 5126,
            "count" : 1693,
            "type" : "VEC2"
        },
        {
            "bufferView" : 3,
            "componentType" : 5123,
            "count" : 1693,
            "type" : "VEC4"
        },
        {
            "bufferView" : 4,
            "componentType" : 5126,
            "count" : 1693,
            "type" : "VEC4"
        },
        {
            "bufferView" : 5,
            "componentType" : 5123,
            "count" : 1693,
            "type" : "VEC4"
        },
        {
            "bufferView" : 6,
            "componentType" : 5126,
            "count" : 1693,
            "type" : "VEC4"
        },
        {
            "bufferView" : 7,
            "componentType" : 5123,
            "count" : 8448,
            "type" : "SCALAR"
        },
        {
            "bufferView" : 8,
            "componentType" : 5126,
            "count" : 13,
            "type" : "MAT4"
        },
        {
            "bufferView" : 9,
            "componentType" : 5126,
            "count" : 1,
            "max" : [
                0
            ],
            "min" : [
                0
            ],
            "type" : "SCALAR"
        },
        {
            "bufferView" : 10,
            "componentType" : 5126,
            "count" : 1,
            "type" : "VEC3"
        },
        {
            "bufferView" : 11,
            "componentType" : 5126,
            "count" : 1,
            "type" : "VEC4"
        },
        {
            "bufferView" : 12,
            "componentType" : 5126,
            "count" : 1,
            "type" : "VEC3"
        },
        {
            "bufferView" : 13,
            "componentType" : 5126,
            "count" : 9,
            "max" : [
                1.6666666666666667
            ],
            "min" : [
                0
            ],
            "type" : "SCALAR"
        },
        {
            "bufferView" : 14,
            "componentType" : 5126,
            "count" : 27,
            "type" : "VEC3"
        },
        {
            "bufferView" : 15,
            "componentType" : 5126,
            "count" : 27,
            "type" : "VEC4"
        },
        {
            "bufferView" : 16,
            "componentType" : 5126,
            "count" : 27,
            "type" : "VEC3"
        },
        {
            "bufferView" : 17,
            "componentType" : 5126,
            "count" : 27,
            "type" : "VEC3"
        },
        {
            "bufferView" : 18,
            "componentType" : 5126,
            "count" : 27,
            "type" : "VEC4"
        },
        {
            "bufferView" : 19,
            "componentType" : 5126,
            "count" : 27,
            "type" : "VEC3"
        },
        {
            "bufferView" : 20,
            "componentType" : 5126,
            "count" : 5,
            "max" : [
                1.6666666666666667
            ],
            "min" : [
                0
            ],
            "type" : "SCALAR"
        },
        {
            "bufferView" : 21,
            "componentType" : 5126,
            "count" : 15,
            "type" : "VEC3"
        },
        {
            "bufferView" : 22,
            "componentType" : 5126,
            "count" : 15,
            "type" : "VEC4"
        },
        {
            "bufferView" : 23,
            "componentType" : 5126,
            "count" : 15,
            "type" : "VEC3"
        }
    ],
    "bufferViews" : [
        {
            "buffer" : 0,
            "byteLength" : 20316,
            "byteOffset" : 0
        },
        {
            "buffer" : 0,
            "byteLength" : 20316,
            "byteOffset" : 20316
        },
        {
            "buffer" : 0,
            "byteLength" : 13544,
            "byteOffset" : 40632
        },
        {
            "buffer" : 0,
            "byteLength" : 13544,
            "byteOffset" : 54176
        },
        {
            "buffer" : 0,
            "byteLength" : 27088,
            "byteOffset" : 67720
        },
        {
            "buffer" : 0,
            "byteLength" : 13544,
            "byteOffset" : 94808
        },
        {
            "buffer" : 0,
            "byteLength" : 27088,
            "byteOffset" : 108352
        },
        {
            "buffer" : 0,
            "byteLength" : 16896,
            "byteOffset" : 135440
        },
        {
            "buffer" : 0,
            "byteLength" : 832,
            "byteOffset" : 152336
        },
        {
            "buffer" : 0,
            "byteLength" : 4,
            "byteOffset" : 153168
        },
        {
            "buffer" : 0,
            "byteLength" : 12,
            "byteOffset" : 153172
        },
        {
            "buffer" : 0,
            "byteLength" : 16,
            "byteOffset" : 153184
        },
        {
            "buffer" : 0,
            "byteLength" : 12,
            "byteOffset" : 153200
        },
        {
            "buffer" : 0,
            "byteLength" : 36,
            "byteOffset" : 153212
        },
        {
            "buffer" : 0,
            "byteLength" : 324,
            "byteOffset" : 153248
        },
        {
            "buffer" : 0,
            "byteLength" : 432,
            "byteOffset" : 153572
        },
        {
            "buffer" : 0,
            "byteLength" : 324,
            "byteOffset" : 154004
        },
        {
            "buffer" : 0,
            "byteLength" : 324,
            "byteOffset" : 154328
        },
        {
            "buffer" : 0,
            "byteLength" : 432,
            "byteOffset" : 154652
        },
        {
            "buffer" : 0,
            "byteLength" : 324,
            "byteOffset" : 155084
        },
        {
            "buffer" : 0,
            "byteLength" : 20,
            "byteOffset" : 155408
        },
        {
            "buffer" : 0,
            "byteLength" : 180,
            "byteOffset" : 155428
        },
        {
            "buffer" : 0,
            "byteLength" : 240,
            "byteOffset" : 155608
        },
        {
            "buffer" : 0,
            "byteLength" : 180,
            "byteOffset" : 155848
        }
    ],
    "buffers" : [
        {
            "byteLength" : 156028,
            "uri" : "data:application/octet-stream;base64,"
        }
    ]
}
